<svg width="66" height="66" viewBox="0 0 66 66" fill="none" xmlns="http://www.w3.org/2000/svg">
<rect width="65.5" height="65.5" rx="20" fill="#F563D3"/>
<path d="M16.6274 24.4763C16.6384 24.5384 16.6474 24.6004 16.6511 24.6629C16.6979 25.4657 17.3048 31.8704 24.9344 39.6687C24.9344 39.6687 31.525 46.3852 38.4614 47.7973C38.4914 47.8035 38.5209 47.8103 38.5509 47.8185C38.9709 47.9328 42.5415 48.8352 44.382 46.9894L47.0042 44.4143C47.0279 44.391 47.0526 44.3683 47.0779 44.3466C47.3394 44.1217 49.1605 42.4393 47.3389 40.6503C45.4952 38.8397 43.171 36.632 42.9078 36.3818C42.8952 36.37 42.8831 36.3581 42.8709 36.3457C42.7283 36.1999 41.3736 34.8891 39.7867 36.0867C39.7409 36.1213 39.6977 36.1601 39.6567 36.2004L37.0893 38.7285C36.514 39.2738 35.6003 39.2666 35.0335 38.7125L26.2623 30.1316C25.6733 29.5553 25.6886 28.614 26.296 28.0563L28.3486 26.1728C28.3486 26.1728 30.5976 24.128 28.1823 21.9193L24.597 18.3982C24.5749 18.3765 24.5538 18.3543 24.5328 18.3311C24.3012 18.0747 22.5827 16.3193 20.5664 18.2732C20.5048 18.3326 20.438 18.3864 20.3669 18.4339C19.6827 18.895 16.0869 21.4712 16.6274 24.4763Z" fill="white"/>
<path d="M40.7936 30.7492C41.3489 30.7489 41.8062 30.2963 41.7275 29.7466C41.6304 29.0678 41.4353 28.4049 41.1467 27.779C40.7175 26.8478 40.0916 26.0205 39.3123 25.3542C38.5329 24.6878 37.6185 24.1981 36.6319 23.9187C35.9688 23.7309 35.2836 23.6411 34.5979 23.6507C34.0427 23.6584 33.6666 24.1804 33.7526 24.729C33.8386 25.2776 34.3557 25.6421 34.9105 25.6655C35.3065 25.6821 35.7004 25.745 36.084 25.8536C36.7912 26.0539 37.4467 26.4049 38.0054 26.8826C38.5641 27.3603 39.0127 27.9533 39.3205 28.6209C39.4874 28.9829 39.6107 29.3622 39.6887 29.7508C39.7979 30.2953 40.2383 30.7495 40.7936 30.7492Z" fill="#F9A1E5"/>
<path d="M44.9458 30.8632C45.6147 30.9156 46.2067 30.4145 46.1817 29.7441C46.1362 28.5246 45.879 27.3191 45.4184 26.1824C44.8054 24.6694 43.8489 23.3195 42.6246 22.2396C41.4002 21.1597 39.9415 20.3793 38.3638 19.96C37.1784 19.645 35.9503 19.5403 34.7347 19.6474C34.0663 19.7063 33.6432 20.3563 33.7786 21.0134C33.9141 21.6705 34.5577 22.0837 35.2276 22.0479C36.071 22.0029 36.9187 22.0899 37.7397 22.3081C38.9534 22.6307 40.0755 23.231 41.0174 24.0618C41.9592 24.8925 42.695 25.9309 43.1666 27.0948C43.4856 27.8821 43.6778 28.7124 43.7384 29.5547C43.7866 30.2239 44.2769 30.8109 44.9458 30.8632Z" fill="#F9A1E5"/>
</svg>
